<?xml version="1.0" standalone="no"?>
<!DOCTYPE svg PUBLIC "-//W3C//DTD SVG 20010904//EN"
 "http://www.w3.org/TR/2001/REC-SVG-20010904/DTD/svg10.dtd">
<svg version="1.0" xmlns="http://www.w3.org/2000/svg"
 width="1200.000000pt" height="1200.000000pt" viewBox="0 0 1200.000000 1200.000000"
 preserveAspectRatio="xMidYMid meet">
<metadata>
Created by potrace 1.14, written by Peter Selinger 2001-2017
</metadata>
<g transform="translate(0.000000,1200.000000) scale(0.100000,-0.100000)"
fill="#000000" stroke="none">
<path d="M5620 11189 c-383 -31 -759 -124 -1116 -278 -254 -108 -787 -371
-889 -438 -345 -225 -592 -515 -725 -852 -34 -86 -77 -236 -104 -363 -4 -15
-26 -50 -51 -77 -146 -166 -237 -376 -270 -628 -31 -236 -16 -732 36 -1143 22
-181 85 -559 122 -742 13 -65 23 -118 22 -118 -1 0 -24 9 -50 21 -73 33 -184
36 -264 9 -272 -92 -386 -398 -337 -905 27 -279 70 -442 171 -651 97 -201 315
-498 420 -573 26 -19 82 -49 124 -67 l76 -33 12 -168 c75 -1030 420 -1763
1058 -2244 164 -123 405 -260 608 -344 87 -36 89 -55 7 -80 -50 -15 -66 -16
-99 -6 -35 10 -74 5 -323 -38 -392 -69 -979 -158 -1188 -182 -180 -20 -303
-48 -405 -94 -75 -33 -229 -135 -218 -145 4 -4 43 -28 87 -54 l79 -47 96 49
c110 56 177 73 406 103 298 38 1262 188 1316 205 13 4 18 -6 23 -47 16 -120
91 -244 226 -372 329 -313 775 -468 1395 -484 722 -18 1274 145 1633 482 137
129 212 262 228 408 6 53 9 58 28 53 12 -3 158 -30 326 -61 168 -31 472 -87
675 -124 204 -38 404 -74 446 -79 94 -14 229 -62 296 -106 l50 -33 86 51 c48
28 87 54 87 58 0 11 -92 75 -170 117 -107 57 -213 89 -363 111 -73 10 -453 78
-845 151 -613 115 -718 132 -750 123 -27 -7 -48 -7 -71 1 l-33 11 68 29 c103
42 328 157 419 214 617 380 1015 993 1174 1802 38 195 59 360 74 579 l12 172
57 23 c115 47 197 123 340 315 274 368 390 754 375 1245 -6 196 -24 285 -84
405 -122 241 -385 320 -603 179 -33 -21 -60 -37 -60 -35 0 2 29 187 65 412 79
490 113 749 125 946 10 171 -3 544 -25 728 -60 489 -277 995 -583 1360 -96
116 -166 181 -337 318 -287 229 -476 326 -703 361 -69 11 -79 16 -171 85 -257
196 -496 308 -849 396 -153 38 -361 76 -491 89 -118 13 -516 12 -671 0z m1085
-908 c75 -13 204 -47 340 -91 123 -40 262 -78 315 -86 194 -31 304 -69 417
-144 54 -37 144 -121 175 -164 18 -24 8 -20 -58 26 -99 69 -180 110 -293 148
-98 33 -190 45 -456 59 -144 8 -199 15 -275 37 -206 58 -237 64 -347 75 -84 8
-162 8 -296 0 -304 -19 -555 -63 -877 -153 -196 -54 -191 -53 -140 -20 81 53
253 140 365 185 181 74 326 113 525 142 136 20 448 13 605 -14z m-1775 -157
c0 -12 -112 -56 -179 -69 -39 -9 -164 -22 -278 -30 -247 -17 -324 -35 -478
-109 -138 -67 -253 -151 -377 -278 -54 -55 -98 -97 -98 -93 0 12 53 111 83
155 115 168 327 310 554 372 69 19 109 21 353 23 203 2 291 7 335 18 70 17 85
19 85 11z m2335 -244 c319 -22 512 -72 672 -173 106 -65 196 -185 218 -287 l8
-35 -65 61 c-210 196 -552 333 -1038 414 -68 12 -127 23 -129 26 -8 7 191 4
334 -6z m1350 -245 c92 -46 189 -150 249 -265 l49 -95 -85 82 c-147 139 -315
205 -471 183 -35 -5 -80 -16 -100 -25 -20 -8 -39 -15 -41 -15 -12 0 -39 111
-30 120 26 26 160 50 264 47 94 -2 112 -5 165 -32z m-2290 5 c94 -10 215 -26
270 -34 119 -19 596 -40 710 -33 l80 6 -50 -21 c-210 -85 -459 -94 -890 -33
-305 43 -368 47 -588 43 -117 -3 -221 -8 -232 -12 -19 -7 -19 -7 -1 4 31 20
170 68 242 84 97 20 261 19 459 -4z m1470 -185 c92 -19 215 -61 288 -95 58
-27 61 -28 200 -23 224 9 357 -30 469 -135 93 -87 135 -192 145 -358 7 -118
-5 -140 -31 -56 -27 87 -91 210 -141 275 -39 49 -134 131 -143 123 -1 -2 22
-40 53 -85 70 -101 133 -233 180 -380 47 -145 77 -210 131 -292 51 -77 115
-139 175 -169 l42 -22 -36 43 c-44 51 -79 139 -75 187 l3 35 47 -69 c26 -38
72 -94 102 -124 l56 -54 0 -203 c0 -268 -20 -446 -116 -1053 l-39 -245 -6 90
c-8 110 -36 221 -90 357 -63 162 -97 309 -109 471 -21 292 -50 625 -61 707
-47 347 -295 698 -606 854 -87 43 -107 41 -793 -89 -757 -144 -1122 -190
-1695 -215 -132 -5 -256 -12 -275 -15 -52 -8 -21 7 96 48 181 63 393 99 669
113 l140 7 -75 18 c-225 53 -473 53 -745 -2 -226 -45 -523 -168 -715 -294 -47
-31 -89 -59 -94 -63 -6 -3 10 22 33 56 76 108 230 205 431 273 69 23 132 48
140 54 8 7 80 28 160 48 349 86 759 107 1220 61 206 -20 585 -15 730 10 163
28 252 49 238 57 -18 10 -179 45 -268 59 -41 7 -160 15 -265 19 l-190 6 120
32 c66 17 154 36 195 42 41 6 86 13 100 15 52 9 338 -4 405 -19z m-3017 -35
c-210 -39 -402 -104 -577 -196 -47 -24 -95 -44 -107 -44 -41 0 -386 -71 -462
-95 -150 -47 -251 -127 -352 -277 -121 -179 -132 -239 -185 -933 -27 -357 -35
-397 -125 -640 -93 -252 -101 -292 -108 -530 l-5 -210 -33 160 c-84 411 -151
882 -174 1223 -10 151 -10 166 6 190 10 15 42 72 71 127 l53 100 0 -92 c0 -51
4 -93 9 -93 18 0 159 159 203 230 60 96 105 230 118 354 14 122 39 203 87 284
41 69 134 164 141 144 2 -6 -3 -43 -12 -81 -9 -39 -16 -74 -16 -79 0 -5 30 19
66 55 126 121 306 226 501 291 230 77 584 127 913 130 l85 0 -97 -18z m757
-149 l40 -7 -55 -8 c-90 -13 -281 -54 -366 -80 -43 -13 -113 -27 -154 -30
-304 -28 -662 -83 -847 -130 -51 -13 -90 -20 -87 -15 12 19 230 122 332 156
171 57 394 97 652 116 91 7 446 6 485 -2z m2668 -132 c229 -117 434 -374 512
-645 27 -93 42 -231 70 -629 25 -369 43 -458 153 -760 66 -183 67 -198 51
-741 -8 -264 -14 -542 -14 -619 0 -134 1 -140 22 -149 20 -9 21 -19 27 -160 3
-83 8 -313 12 -512 l6 -361 -82 -164 c-123 -246 -228 -397 -380 -549 -68 -68
-186 -157 -195 -148 -2 2 0 21 5 43 13 54 12 135 -1 115 -5 -8 -35 -57 -67
-109 -66 -109 -179 -234 -223 -250 l-31 -11 7 75 c4 42 3 75 -2 75 -5 0 -21
-26 -37 -57 -57 -117 -151 -253 -175 -253 -4 0 -13 28 -21 63 -19 88 -90 223
-148 284 -61 63 -142 116 -228 149 -84 32 -134 42 -255 55 -89 9 -139 6 -447
-25 -763 -77 -880 -75 -1848 30 -69 7 -245 -12 -335 -37 -193 -53 -342 -180
-412 -352 -11 -28 -24 -54 -28 -57 -3 -3 -9 -26 -13 -52 -9 -62 -28 -78 -64
-51 -36 27 -101 120 -156 226 l-46 87 0 -79 c0 -75 -1 -79 -20 -74 -55 15
-159 135 -262 306 l-50 82 7 -70 c3 -38 9 -81 12 -94 5 -22 4 -22 -18 -10 -98
52 -313 368 -475 696 l-75 152 7 358 c4 216 2 471 -5 643 -20 492 -26 1234
-12 1326 12 74 40 165 130 419 61 171 70 228 101 650 16 220 36 438 44 485 33
184 83 290 192 409 96 103 180 142 407 186 71 14 131 24 133 22 4 -3 -63 -108
-105 -164 -13 -17 -20 -36 -16 -43 9 -15 29 -12 207 38 81 23 203 52 270 66
141 29 498 79 531 74 20 -3 19 -5 -14 -25 -43 -27 -129 -114 -165 -166 -14
-21 -43 -75 -64 -120 -68 -143 -63 -211 12 -154 18 14 71 43 118 65 269 125
544 183 960 202 642 29 1008 76 1840 235 547 105 583 109 653 74z m-5658
-2754 c22 -11 67 -47 101 -80 l61 -60 22 -144 c12 -79 20 -145 18 -147 -2 -2
-25 27 -50 65 -101 146 -216 225 -323 219 -32 -2 -59 -8 -61 -14 -2 -7 22 -27
54 -45 32 -18 94 -68 138 -110 l80 -78 -18 -28 c-39 -62 -86 -162 -102 -218
-36 -124 -8 -277 71 -380 34 -45 41 -39 16 12 -29 57 -45 149 -38 218 8 82 51
201 93 260 l36 48 17 -22 c9 -13 40 -67 68 -120 l51 -96 10 -185 c12 -232 4
-570 -14 -570 -22 0 -127 84 -182 143 -28 31 -54 57 -57 57 -4 0 3 -19 15 -42
29 -57 140 -170 195 -199 l44 -24 0 -142 c0 -109 -3 -143 -13 -143 -33 0 -121
77 -198 172 -192 239 -313 479 -363 719 -19 91 -46 358 -46 450 0 249 77 438
200 494 44 19 121 15 175 -10z m7091 1 c122 -57 184 -224 184 -493 0 -394 -80
-684 -268 -973 -125 -193 -267 -350 -317 -350 -3 0 -5 64 -5 143 l1 142 56 40
c76 55 173 173 173 211 0 4 -32 -25 -71 -64 -65 -68 -145 -130 -153 -121 -2 2
-8 168 -13 369 -9 351 -9 367 9 405 34 69 113 205 120 205 12 0 75 -105 99
-165 19 -50 23 -79 23 -175 1 -105 -1 -120 -26 -175 l-28 -60 34 38 c93 104
118 260 67 410 -21 60 -64 149 -92 189 l-19 27 73 73 c41 40 104 90 141 112
80 47 76 66 -11 66 -122 0 -244 -97 -356 -283 l-34 -57 -6 122 -6 123 56 73
c68 88 122 137 188 168 63 30 116 30 181 0z m-4746 -2910 c63 -8 210 -30 325
-50 360 -60 471 -70 770 -70 306 0 394 8 827 80 161 26 309 45 360 46 79 1 93
-2 152 -31 114 -56 170 -149 170 -281 0 -126 -67 -261 -196 -392 -138 -140
-300 -237 -467 -279 -71 -18 -104 -21 -215 -17 -147 6 -190 18 -274 75 -59 40
-122 120 -100 127 7 2 36 9 63 16 77 18 132 45 140 70 4 12 3 26 -2 31 -6 6
-87 5 -214 -2 -194 -11 -594 -6 -682 8 -36 5 -39 4 -35 -17 5 -34 43 -57 140
-83 l88 -23 -19 -29 c-26 -43 -106 -114 -149 -132 -109 -46 -289 -57 -424 -27
-249 57 -518 264 -628 484 -113 226 -20 455 204 500 23 4 43 8 46 9 3 1 57 -5
120 -13z m213 -2105 c369 -135 418 -142 916 -142 341 0 386 2 486 21 145 28
184 40 415 125 244 90 296 103 313 82 7 -9 80 -37 162 -63 83 -26 154 -52 158
-58 14 -20 -4 -120 -34 -185 -40 -87 -147 -195 -284 -287 -323 -215 -720 -314
-1261 -314 -321 0 -474 18 -744 86 -338 85 -675 309 -773 514 -19 41 -38 92
-42 112 l-6 37 88 26 c48 14 113 34 143 43 l55 17 12 55 c6 30 12 56 12 57 3
4 220 -67 384 -126z"/>
<path d="M4145 7149 c55 -29 166 -101 162 -105 -1 -2 -72 19 -156 47 -85 27
-155 48 -157 46 -7 -7 148 -75 276 -122 135 -49 412 -137 417 -131 2 1 -29 17
-69 35 -74 32 -328 169 -328 176 0 8 149 -59 330 -148 102 -50 190 -93 195
-95 23 -8 -54 47 -154 111 -199 126 -342 184 -501 201 l-55 7 40 -22z"/>
<path d="M4405 7162 c6 -5 116 -79 245 -164 221 -145 241 -156 334 -181 54
-15 100 -26 102 -24 2 2 -24 19 -59 39 -34 19 -109 62 -167 95 -132 75 -468
249 -455 235z"/>
<path d="M7300 7103 c-69 -35 -116 -56 -104 -46 11 10 38 33 60 51 l39 33 -43
-26 c-23 -14 -66 -40 -95 -58 -78 -50 -175 -101 -150 -80 11 10 55 44 97 77
42 32 76 60 76 61 0 1 -80 -38 -177 -88 -98 -49 -173 -85 -168 -80 6 6 62 45
125 87 63 42 112 76 109 76 -3 0 -31 -9 -62 -19 -69 -24 -124 -61 -236 -160
-120 -104 -134 -114 -76 -51 28 30 70 77 95 104 25 27 38 45 30 41 -46 -26
-162 -118 -184 -148 -27 -36 -72 -154 -63 -164 3 -3 45 13 94 35 88 41 106 45
83 17 -22 -26 -1 -16 64 30 63 44 83 55 71 35 -18 -29 86 20 220 102 111 69
354 248 323 237 -2 0 -59 -30 -128 -66z"/>
<path d="M7773 7155 c-105 -19 -166 -41 -282 -102 -108 -56 -295 -175 -307
-195 -4 -6 28 8 71 31 75 42 441 211 454 211 14 -1 -142 -87 -274 -151 -77
-38 -137 -69 -134 -69 14 0 277 83 394 124 144 51 323 128 308 133 -5 2 -76
-19 -158 -46 -83 -27 -152 -47 -154 -46 -5 6 152 105 166 105 6 0 15 5 18 10
8 12 -11 12 -102 -5z"/>
<path d="M4580 7156 c0 -7 206 -157 288 -210 81 -51 245 -137 251 -131 2 3 -2
12 -10 22 -8 9 19 -6 60 -35 71 -50 98 -60 71 -27 -18 22 -12 20 95 -30 97
-45 97 -45 91 -20 -30 119 -77 182 -197 265 l-64 44 32 -40 c18 -23 39 -47 48
-54 9 -7 35 -36 58 -64 41 -50 40 -49 -38 20 -122 109 -207 170 -270 193 -32
12 -59 20 -61 18 -3 -2 52 -41 121 -87 69 -45 125 -85 125 -87 0 -3 -79 37
-175 87 -96 50 -175 89 -175 86 0 -2 39 -35 88 -72 48 -37 92 -72 97 -77 13
-12 -61 29 -195 110 -99 60 -103 58 -20 -11 24 -19 -7 -6 -92 39 -71 36 -128
64 -128 61z"/>
<path d="M7405 7072 c-154 -79 -487 -264 -509 -283 -4 -4 43 7 105 25 111 32
121 37 339 180 211 139 251 166 240 166 -3 0 -82 -40 -175 -88z"/>
<path d="M4082 7013 c82 -31 146 -58 144 -60 -2 -3 -48 5 -103 17 -97 22 -325
40 -311 25 4 -4 49 -18 100 -31 80 -19 87 -22 53 -24 l-40 -2 40 -14 c38 -12
34 -13 -60 -8 -55 2 -118 7 -140 9 -38 4 -38 3 -11 -7 19 -7 24 -13 16 -18
-16 -10 99 -30 219 -37 108 -6 210 4 176 18 -13 5 6 8 55 9 l75 2 -45 13 c-60
17 -47 18 63 1 50 -8 139 -17 197 -20 l105 -5 -95 28 c-52 15 -135 42 -185 60
-79 29 -363 102 -390 100 -5 0 56 -25 137 -56z"/>
<path d="M7905 7039 c-66 -16 -201 -56 -300 -88 -99 -33 -189 -62 -200 -64
-40 -11 183 5 272 19 111 17 121 17 68 -1 l-40 -13 70 -1 c42 -1 65 -5 57 -10
-47 -29 227 -26 370 5 15 3 26 10 25 16 -1 6 9 15 23 19 18 6 12 7 -20 4 -25
-2 -90 -7 -145 -9 -94 -5 -98 -5 -60 8 l40 14 -40 2 c-33 1 -24 5 58 25 54 13
101 26 105 29 3 3 -28 6 -69 6 -75 0 -206 -18 -314 -44 -33 -8 -61 -13 -63
-12 -1 2 68 29 153 61 204 77 206 82 10 34z"/>
<path d="M5396 6898 c19 -29 42 -78 51 -108 8 -30 17 -62 20 -70 7 -24 23 9
23 48 0 39 -11 63 -57 120 -54 66 -79 73 -37 10z"/>
<path d="M6577 6902 c-73 -79 -94 -136 -63 -177 12 -17 14 -15 20 20 8 43 44
125 76 173 31 45 20 40 -33 -16z"/>
<path d="M3755 6840 c53 -6 55 -7 20 -9 l-40 -3 40 -9 c67 -13 156 -9 225 11
l65 19 -185 -1 c-120 -1 -164 -4 -125 -8z"/>
<path d="M8000 6829 c68 -20 148 -24 215 -10 l40 9 -40 3 c-33 2 -28 4 25 9
43 4 3 7 -120 8 l-185 0 65 -19z"/>
<path d="M3752 6760 c-121 -27 -157 -40 -114 -40 37 0 34 -18 -8 -46 -22 -15
-40 -28 -40 -30 0 -8 75 27 110 50 19 13 51 28 70 35 40 14 130 60 115 60 -5
-1 -65 -13 -133 -29z"/>
<path d="M8150 6766 c25 -14 61 -30 80 -37 19 -7 46 -21 60 -31 28 -22 91 -50
97 -44 2 2 -12 14 -32 26 -37 23 -38 40 -2 40 41 1 -4 17 -113 40 -58 13 -112
25 -120 27 -8 2 5 -7 30 -21z"/>
<path d="M4303 6339 c-221 -32 -422 -118 -591 -253 -67 -53 -102 -100 -102
-135 0 -21 7 -25 48 -21 15 1 39 -13 68 -39 62 -58 170 -126 288 -181 192 -91
362 -130 556 -130 140 1 225 15 401 69 195 59 261 73 384 80 96 5 110 8 113
24 7 33 -56 139 -134 230 -218 253 -486 369 -844 366 -69 -1 -153 -5 -187 -10z
m407 -139 c114 -11 243 -49 248 -72 5 -27 -25 -85 -52 -104 -39 -25 -99 -23
-136 4 l-30 23 -10 -26 c-27 -72 4 -174 68 -223 29 -22 47 -27 106 -30 64 -3
75 -1 113 24 57 38 86 93 86 163 0 34 -7 69 -17 90 l-18 33 49 -33 c67 -46
139 -115 174 -167 16 -24 29 -46 27 -47 -2 -2 -44 -10 -94 -19 -49 -8 -159
-36 -243 -61 -200 -61 -280 -75 -413 -75 -262 0 -559 110 -770 286 l-28 23 59
35 c126 77 366 156 529 175 106 12 239 12 352 1z"/>
<path d="M7307 6339 c-246 -36 -409 -119 -587 -298 -126 -127 -193 -225 -188
-276 l3 -30 110 -7 c122 -7 179 -19 374 -77 181 -55 273 -71 406 -71 203 0
357 37 562 135 139 67 197 102 280 172 39 33 59 43 87 43 26 0 36 4 36 15 0
68 -150 195 -335 285 -94 46 -224 85 -350 105 -97 16 -303 18 -398 4z m393
-144 c143 -24 386 -114 475 -175 l48 -33 -34 -29 c-145 -121 -369 -226 -559
-262 -104 -20 -275 -20 -378 -1 -44 9 -139 33 -211 55 -119 36 -209 57 -329
78 l-43 7 54 65 c131 160 340 268 572 299 100 13 317 11 405 -4z"/>
<path d="M7810 6120 c0 -94 -122 -151 -190 -88 -26 24 -29 21 -41 -31 -13 -57
5 -120 47 -169 44 -52 79 -65 158 -60 51 3 71 10 101 32 70 54 94 158 56 242
-19 41 -79 98 -112 107 -16 4 -19 -1 -19 -33z"/>
<path d="M6466 6107 c-60 -97 -89 -177 -122 -338 -20 -101 -28 -175 -31 -299
-8 -272 12 -401 85 -560 l26 -55 4 35 c2 19 -2 116 -9 215 -28 373 -14 548 72
898 22 87 39 162 39 168 0 25 -23 2 -64 -64z"/>
<path d="M6600 4472 c0 -4 20 -57 45 -117 48 -117 54 -159 30 -205 -18 -35
-43 -50 -85 -50 -40 0 -61 11 -133 72 -33 26 -70 51 -84 54 -53 14 -113 -31
-226 -168 -48 -58 -113 -98 -158 -98 -44 0 -101 44 -179 135 -125 148 -183
165 -277 82 -73 -65 -94 -77 -138 -77 -52 0 -82 21 -96 70 -14 47 -3 97 48
213 19 43 32 81 29 85 -13 13 -79 -67 -114 -137 -31 -64 -37 -85 -37 -141 0
-57 4 -72 28 -103 53 -69 137 -94 213 -62 19 8 61 37 94 66 72 63 89 61 152
-12 102 -120 133 -150 181 -174 105 -52 216 -22 305 83 93 110 135 152 153
152 10 0 42 -21 70 -46 94 -84 166 -102 246 -63 107 52 127 158 57 309 -31 69
-124 167 -124 132z"/>
<path d="M7205 3440 c-23 -9 -44 -31 -60 -64 -8 -17 -38 -28 -156 -58 -637
-160 -1347 -161 -2003 -2 -141 35 -149 38 -167 69 -23 39 -68 60 -106 50 -15
-3 -46 -26 -70 -49 -45 -45 -55 -85 -33 -126 15 -28 72 -42 134 -35 44 6 81 0
197 -29 382 -94 737 -133 1142 -123 344 8 643 47 944 123 109 27 146 32 193
27 69 -7 103 0 130 27 32 32 26 79 -17 130 -29 34 -89 73 -105 69 -2 0 -12 -4
-23 -9z"/>
</g>
</svg>
