<?xml version="1.0" standalone="no"?>
<!DOCTYPE svg PUBLIC "-//W3C//DTD SVG 20010904//EN"
 "http://www.w3.org/TR/2001/REC-SVG-20010904/DTD/svg10.dtd">
<svg version="1.0" xmlns="http://www.w3.org/2000/svg"
 width="1592.000000pt" height="1592.000000pt" viewBox="0 0 1592.000000 1592.000000"
 preserveAspectRatio="xMidYMid meet">
<metadata>
Created by potrace 1.14, written by Peter Selinger 2001-2017
</metadata>
<g transform="translate(0.000000,1592.000000) scale(0.100000,-0.100000)"
fill="#000000" stroke="none">
<path d="M7570 11897 c-3 -3 -53 -8 -112 -11 -58 -4 -115 -8 -125 -10 -10 -2
-40 -7 -68 -10 -378 -49 -746 -170 -1220 -401 -99 -48 -238 -116 -310 -150
-248 -118 -414 -234 -596 -415 -270 -268 -404 -525 -493 -942 -4 -15 -20 -42
-37 -60 -147 -157 -260 -411 -284 -638 -3 -30 -8 -77 -11 -105 -8 -60 -7 -438
0 -550 30 -441 62 -668 172 -1255 3 -14 9 -42 14 -63 4 -20 7 -37 5 -37 -1 0
-23 9 -48 20 -26 12 -75 23 -110 27 -230 21 -414 -144 -479 -429 -23 -102 -30
-344 -15 -488 4 -41 10 -97 13 -125 34 -307 180 -636 414 -929 121 -152 184
-201 343 -265 25 -10 27 -15 28 -68 0 -32 2 -69 4 -83 1 -14 6 -70 9 -125 4
-55 9 -107 11 -115 2 -8 6 -42 10 -75 30 -286 130 -671 242 -935 197 -464 502
-835 914 -1109 114 -76 351 -202 482 -256 85 -36 87 -53 8 -81 -49 -17 -64
-18 -92 -9 -19 7 -47 11 -64 10 -24 -1 -422 -69 -535 -90 -14 -3 -43 -7 -65
-10 -22 -3 -62 -10 -90 -15 -27 -5 -66 -12 -85 -14 -37 -5 -227 -34 -270 -41
-28 -5 -159 -24 -205 -30 -16 -2 -52 -7 -80 -11 -27 -3 -57 -8 -65 -9 -8 -1
-46 -6 -85 -9 -149 -15 -250 -37 -354 -79 -56 -23 -177 -94 -229 -135 l-24
-18 94 -56 c900 -535 1926 -867 2988 -968 365 -35 982 -35 1345 0 784 76 1528
270 2235 582 245 108 717 356 806 424 l28 20 -60 43 c-133 96 -302 160 -479
181 -49 6 -110 15 -135 20 -25 6 -61 12 -80 15 -19 3 -46 8 -60 10 -61 13
-152 29 -220 40 -19 3 -51 10 -70 15 -19 4 -54 11 -78 14 -24 3 -46 7 -50 10
-4 2 -27 7 -52 10 -25 3 -55 8 -67 11 -13 3 -31 7 -40 9 -10 2 -38 7 -63 11
-58 9 -74 13 -136 25 -28 6 -64 13 -80 16 -16 3 -67 12 -114 20 -47 9 -92 17
-100 19 -45 8 -88 16 -110 21 -57 12 -138 16 -156 7 -13 -7 -30 -7 -53 1 l-33
12 68 29 c801 334 1317 934 1543 1795 39 151 72 315 91 465 6 44 12 94 15 110
3 26 12 132 21 245 1 19 3 61 3 93 1 53 3 58 29 68 126 46 226 132 360 310
225 299 348 604 377 939 3 36 8 76 11 89 6 28 6 316 0 346 -5 28 -18 120 -17
120 1 0 -10 33 -23 73 -72 211 -210 336 -388 349 -92 7 -168 -13 -255 -67 -35
-22 -63 -37 -63 -35 0 5 28 182 61 385 11 69 22 139 25 155 2 17 6 41 9 55 5
29 11 66 21 135 3 28 8 59 10 69 2 11 8 56 14 100 6 45 13 95 15 111 39 280
47 464 32 790 -21 460 -108 799 -307 1195 -141 281 -320 507 -551 699 -346
286 -524 384 -774 427 -81 14 -96 21 -150 63 -211 164 -394 266 -613 342 -101
34 -319 94 -417 113 -16 4 -41 9 -55 11 -206 41 -273 48 -565 52 -165 2 -303
2 -305 0z"/>
</g>
</svg>
